<svg width="31" height="31" viewBox="0 0 31 31" fill="none" xmlns="http://www.w3.org/2000/svg">
<rect width="31" height="31" rx="7" fill="#18A04E" fill-opacity="0.1"/>
<path d="M19.9444 9.33333V8.22222H18.222C17.9638 6.95589 16.8414 6 15.5 6C14.1586 6 13.0362 6.95589 12.778 8.22222H11.0556V9.33333H8V26H23V9.33333H19.9444ZM12.1667 9.33333H13.8333V8.77778C13.8333 7.85878 14.581 7.11111 15.5 7.11111C16.419 7.11111 17.1667 7.85878 17.1667 8.77778V9.33333H18.8333V11H12.1667V9.33333ZM21.8889 24.8889H9.11111V10.4444H11.0556V12.1111H19.9444V10.4444H21.8889V24.8889Z" fill="#18A04E"/>
<path d="M19.9444 14.8889H11.0555V16H19.9444V14.8889Z" fill="#18A04E"/>
<path d="M19.9444 17.9444H11.0555V19.0556H19.9444V17.9444Z" fill="#18A04E"/>
<path d="M19.9444 21H11.0555V22.1111H19.9444V21Z" fill="#18A04E"/>
</svg>
