<svg width="31" height="31" viewBox="0 0 31 31" fill="none" xmlns="http://www.w3.org/2000/svg">
<rect width="31" height="31" rx="7" fill="#FBA61D" fill-opacity="0.1"/>
<path d="M21.2734 11.8984V8.68699L18.5864 6H10.7266V11.8984H6V21.2734H10.7266V26H21.2734V21.2734H26V11.8984H21.2734ZM17.7578 7.17188H18.1011L20.1016 9.17238V9.51562H17.7578V7.17188ZM11.8984 7.17188H16.5859V10.6875H20.1016V11.8984H11.8984V7.17188ZM20.1016 24.8281H11.8984V18.9297H20.1016V24.8281ZM24.8281 20.1016H21.2734V18.9297H22.4453V17.7578H9.55469V18.9297H10.7266V20.1016H7.17188V13.0703H24.8281V20.1016Z" fill="#FBA61D"/>
<path d="M9.55469 14.2422H8.38281V15.4141H9.55469V14.2422Z" fill="#FBA61D"/>
<path d="M11.8984 14.2422H10.7266V15.4141H11.8984V14.2422Z" fill="#FBA61D"/>
<path d="M18.9297 20.1016H13.0703V21.2734H18.9297V20.1016Z" fill="#FBA61D"/>
<path d="M18.9297 22.4453H13.0703V23.6172H18.9297V22.4453Z" fill="#FBA61D"/>
</svg>
