<svg width="31" height="31" viewBox="0 0 31 31" fill="none" xmlns="http://www.w3.org/2000/svg">
<rect width="31" height="31" rx="7" fill="#18A04E" fill-opacity="0.1"/>
<path d="M17.6341 17.7578H14.3659C11.6627 17.7578 8.99488 19.0059 7.21094 21.682V26H24.7891V21.682C23.0077 19.0098 20.3407 17.7578 17.6341 17.7578ZM23.6172 24.8281H23.6172H8.38281V22.0405C9.75121 20.0892 11.9747 18.9297 14.3659 18.9297H17.6341C20.0254 18.9297 22.2488 20.0892 23.6172 22.0405V24.8281Z" fill="#18A04E"/>
<path d="M16 6C13.0922 6 10.7266 8.36566 10.7266 11.2734C10.7266 14.1812 13.0922 16.5469 16 16.5469C18.9078 16.5469 21.2734 14.1812 21.2734 11.2734C21.2734 8.36566 18.9078 6 16 6ZM16 15.375C13.7384 15.375 11.8984 13.535 11.8984 11.2734C11.8984 9.01184 13.7384 7.17188 16 7.17188C18.2616 7.17188 20.1016 9.01184 20.1016 11.2734C20.1016 13.535 18.2616 15.375 16 15.375Z" fill="#18A04E"/>
</svg>
