<svg width="80" height="80" viewBox="0 0 80 80" fill="none" xmlns="http://www.w3.org/2000/svg">
<path d="M64.8145 6.66675H15.1856C10.4882 6.66675 6.66675 10.4884 6.66675 15.1858V64.8145C6.66675 69.5118 10.4882 73.3334 15.1856 73.3334H64.8145C69.5119 73.3334 73.3334 69.5118 73.3334 64.8144V15.1858C73.3334 10.4884 69.5119 6.66675 64.8145 6.66675ZM69.4066 64.8145C69.4066 67.3467 67.3466 69.4066 64.8145 69.4066H15.1856C12.6535 69.4066 10.5934 67.3466 10.5934 64.8145V57.6522L23.5173 46.6559C23.9889 46.2546 24.6769 46.2509 25.1529 46.6462L33.2485 53.3686C34.0291 54.0166 35.175 53.9635 35.8923 53.2454L55.1278 33.9806C55.4755 33.6322 55.8808 33.5984 56.0924 33.6092C56.3033 33.62 56.7037 33.6953 57.014 34.0774L69.4067 49.3365V64.8145H69.4066ZM69.4066 43.1075L60.0621 31.6015C59.1354 30.4604 57.7618 29.7627 56.2936 29.6873C54.8264 29.6131 53.3877 30.1654 52.349 31.2058L34.3792 49.2033L27.6618 43.6253C25.714 42.0079 22.901 42.0247 20.9726 43.6654L10.5934 52.4964V15.1858C10.5934 12.6536 12.6535 10.5936 15.1856 10.5936H64.8145C67.3467 10.5936 69.4066 12.6536 69.4066 15.1858V43.1075Z" fill="#999999" fill-opacity="0.5"/>
<path d="M27.6531 14.8691C22.4324 14.8691 18.1853 19.1165 18.1853 24.337C18.1853 29.5575 22.4326 33.8048 27.6531 33.8048C32.8737 33.8048 37.121 29.5575 37.121 24.337C37.121 19.1164 32.8738 14.8691 27.6531 14.8691ZM27.6531 29.8781C24.5977 29.8781 22.112 27.3923 22.112 24.337C22.112 21.2815 24.5977 18.7958 27.6531 18.7958C30.7086 18.7958 33.1943 21.2816 33.1943 24.337C33.1943 27.3923 30.7086 29.8781 27.6531 29.8781Z" fill="#999999" fill-opacity="0.5"/>
</svg>
