<svg width="48" height="48" viewBox="0 0 48 48" fill="none" xmlns="http://www.w3.org/2000/svg">
<path fill-rule="evenodd" clip-rule="evenodd" d="M24 48C37.2548 48 48 37.2548 48 24C48 10.7452 37.2548 0 24 0C10.7452 0 0 10.7452 0 24C0 37.2548 10.7452 48 24 48Z" fill="#F5F5F5"/>
<path fill-rule="evenodd" clip-rule="evenodd" d="M32 34H16C15.4 34 15 33.6 15 33V32C15 28.7 17.7 26 21 26H27C30.3 26 33 28.7 33 32V33C33 33.6 32.6 34 32 34ZM17 32H31C31 29.8 29.2 28 27 28H21C18.8 28 17 29.8 17 32Z" fill="#C5C5C5"/>
<g opacity="0.5">
<path fill-rule="evenodd" clip-rule="evenodd" d="M24 24C21.8 24 20 22.2 20 20V18C20 15.8 21.8 14 24 14C26.2 14 28 15.8 28 18V20C28 22.2 26.2 24 24 24Z" fill="#969696"/>
</g>
</svg>
