<svg width="31" height="31" viewBox="0 0 31 31" fill="none" xmlns="http://www.w3.org/2000/svg">
<rect width="31" height="31" rx="7" fill="#18A04E" fill-opacity="0.1"/>
<path d="M22.6144 17.4721C23.4501 16.2029 23.9373 14.6848 23.9373 13.0547C23.9373 8.61328 20.3239 5 15.8825 5C11.4411 5 7.82785 8.61328 7.82785 13.0547C7.82785 14.6848 8.31506 16.2029 9.15063 17.4721L6 22.067L9.60519 21.3948L10.2775 25L13.2487 20.6667C14.0745 20.9532 14.9606 21.1093 15.8825 21.1093C16.8046 21.1093 17.6907 20.9532 18.5163 20.6667L21.4877 25L22.1598 21.3948L25.765 22.067L22.6144 17.4721ZM10.9146 21.9864L10.5479 20.0198L8.58148 20.3867L9.90839 18.4514C10.5439 19.1542 11.3015 19.7444 12.1472 20.1891L10.9146 21.9864ZM9.00659 13.0547C9.00659 9.26331 12.0912 6.17874 15.8825 6.17874C19.674 6.17874 22.7586 9.26331 22.7586 13.0547C22.7586 16.8462 19.674 19.9307 15.8825 19.9307C12.0912 19.9307 9.00659 16.8462 9.00659 13.0547ZM21.2171 20.0198L20.8505 21.9864L19.618 20.1891C20.4637 19.7444 21.2213 19.1542 21.8568 18.4514L23.1837 20.3865L21.2171 20.0198Z" fill="#18A04E"/>
<path d="M14.4467 14.8236L12.5302 12.9073L11.6967 13.7407L14.4467 16.4906L20.0685 10.869L19.235 10.0356L14.4467 14.8236Z" fill="#18A04E"/>
</svg>
