<svg width="31" height="31" viewBox="0 0 31 31" fill="none" xmlns="http://www.w3.org/2000/svg">
<rect width="31" height="31" rx="7" fill="#38A1D6" fill-opacity="0.1"/>
<path d="M24.2998 14.157C24.225 9.64645 20.5332 6 16.0051 6H15.9949C11.4668 6 7.775 9.64645 7.7002 14.157H6V20.8727H7.6984V21.1951C7.6984 23.2018 9.33102 24.8345 11.3378 24.8345H11.8104V26H16.1521V22.4522H11.8104V23.6626H11.3378C9.97719 23.6626 8.87027 22.5557 8.87027 21.1951V20.8727H10.2895V14.157H8.87207C8.94672 10.2926 12.113 7.17188 15.9949 7.17188H16.0051C19.887 7.17188 23.0533 10.2926 23.1279 14.157H21.7104V20.8727H26V14.157H24.2998ZM12.9823 23.6241H14.9802V24.8281H12.9823V23.6241ZM9.1177 15.3289V19.7008H7.17188V15.3289H9.1177ZM24.8281 19.7008H22.8823V15.3289H24.8281V19.7008Z" fill="#38A1D6"/>
</svg>
