<svg width="31" height="31" viewBox="0 0 31 31" fill="none" xmlns="http://www.w3.org/2000/svg">
<rect width="31" height="31" rx="7" fill="#38A1D6" fill-opacity="0.1"/>
<path d="M15 25.5C12.3289 25.5 9.81766 24.4598 7.92892 22.5711C6.04019 20.6823 5 18.1711 5 15.5C5 12.8289 6.04019 10.3177 7.92892 8.42892C9.81766 6.54019 12.3289 5.5 15 5.5C17.6711 5.5 20.1823 6.54019 22.0711 8.42892C23.9598 10.3177 25 12.8289 25 15.5C25 18.1711 23.9598 20.6823 22.0711 22.5711C20.1823 24.4598 17.6711 25.5 15 25.5ZM15 6.67188C10.1321 6.67188 6.17188 10.6321 6.17188 15.5C6.17188 20.3679 10.1321 24.3281 15 24.3281C19.8679 24.3281 23.8281 20.3679 23.8281 15.5C23.8281 10.6321 19.8679 6.67188 15 6.67188Z" fill="#38A1D6"/>
<path d="M24.4141 16.0859H14.4141V6.08594H15.5859V14.9141H24.4141V16.0859Z" fill="#38A1D6"/>
<path d="M14.5856 15.9143L15.4141 15.0857L22.0743 21.7457L21.2456 22.5744L14.5856 15.9143Z" fill="#38A1D6"/>
<path d="M10.616 23.9334L14.465 15.2621L15.536 15.7376L11.6872 24.4088L10.616 23.9334Z" fill="#38A1D6"/>
</svg>
