<svg width="31" height="31" viewBox="0 0 31 31" fill="none" xmlns="http://www.w3.org/2000/svg">
<rect width="31" height="31" rx="7" fill="#E31E25" fill-opacity="0.1"/>
<path d="M21.399 7.1768V6H10.601V7.1768H7V9.955C7 12.1604 8.71138 13.9812 10.9006 14.2084C11.4393 15.7225 12.6609 16.9253 14.202 17.4605V17.8682C14.2205 19.0478 13.4973 19.8389 12.4438 20.3673V21.2979H11.2011V24.8281H9.9983V26H22.0016V24.8281H20.7988V21.2979H19.5562V20.3662C18.4173 19.8057 17.7892 18.9918 17.798 17.866V17.4605C19.3391 16.9253 20.5607 15.7225 21.0994 14.2084C23.2886 13.9812 25 12.1604 25 9.95504V7.1768H21.399ZM20.2037 7.17188V8.35352H11.7963V7.17188H20.2037ZM8.19535 9.95504V8.34867H10.601V12.4697C10.601 12.6401 10.6096 12.8084 10.6257 12.9747C9.23359 12.648 8.19535 11.4185 8.19535 9.95504ZM19.6035 24.8281H12.3965V22.4698H19.6035V24.8281ZM18.3608 21.0345V21.2979H13.6392V21.0334C15.0892 20.0862 15.4008 18.802 15.3973 17.8661V17.7295C15.5953 17.7512 15.7963 17.7627 16 17.7627C16.2037 17.7627 16.4047 17.7512 16.6027 17.7295V17.863C16.5978 18.8039 16.9084 20.0906 18.3608 21.0345ZM16 16.5908C13.6821 16.5908 11.7963 14.7421 11.7963 12.4697V9.52539H20.2037V12.4697C20.2037 14.7421 18.3179 16.5908 16 16.5908ZM23.8046 9.95504C23.8046 11.4185 22.7664 12.648 21.3743 12.9747C21.3904 12.8085 21.399 12.6401 21.399 12.4698V8.34867H23.8046V9.95504Z" fill="#E31E25"/>
</svg>
