<svg width="24" height="24" viewBox="0 0 24 24" fill="none" xmlns="http://www.w3.org/2000/svg">
<path d="M18.8662 7.2408C18.1532 4.9372 16.3011 3.06982 14.0326 2.36728C11.617 1.61919 9.09855 2.02529 7.12324 3.48142C6.17676 4.17912 5.39137 5.09939 4.85203 6.14263C4.29461 7.22087 4 8.43478 4 9.65318C4 11.3152 4.52574 12.8947 5.52043 14.2208L11.6191 22L17.7102 14.2307L17.7178 14.2208C19.2063 12.2361 19.625 9.69193 18.8662 7.2408ZM16.7837 13.5127L11.6191 20.1008L6.45449 13.5127C5.61562 12.392 5.17219 11.0575 5.17219 9.65318C5.17219 7.60111 6.16156 5.64662 7.81879 4.42498C9.49121 3.19212 11.6297 2.85029 13.6859 3.48701C15.5903 4.07677 17.1462 5.64794 17.7466 7.58736C18.3922 9.67337 18.0412 11.8327 16.7837 13.5127Z" fill="black"/>
<path d="M11.6191 5.55048C9.357 5.55048 7.51657 7.39091 7.51657 9.65306C7.51657 11.9152 9.357 13.7556 11.6191 13.7556C13.8813 13.7556 15.7217 11.9152 15.7217 9.65306C15.7217 7.39091 13.8813 5.55048 11.6191 5.55048ZM11.6191 12.5835C10.0033 12.5835 8.68872 11.2689 8.68872 9.65306C8.68872 8.03724 10.0033 6.72263 11.6191 6.72263C13.235 6.72263 14.5496 8.0372 14.5496 9.65306C14.5496 11.2689 13.235 12.5835 11.6191 12.5835Z" fill="black"/>
</svg>
