<svg width="24" height="24" viewBox="0 0 24 24" fill="none" xmlns="http://www.w3.org/2000/svg">
<path d="M19.9156 14.1186L7.78863 2L2 7.79215L14.0034 19.8074L14.1152 19.9192L22 22L19.9156 14.1186ZM18.561 14.4213L16.9037 16.0786L8.61727 7.79215L10.2746 6.13484L18.561 14.4213ZM3.64543 7.79219L7.78863 3.64895L9.4459 5.30621L5.3027 9.44945L3.64543 7.79219ZM6.13133 10.2781L7.78859 8.62078L16.075 16.9072L14.4177 18.5645L6.13133 10.2781ZM18.9248 19.9779L15.5526 19.0869L19.0839 15.5555L19.9766 18.926L18.9248 19.9779ZM20.3236 20.2362L20.3553 20.3559L20.2357 20.3242L20.3236 20.2362Z" fill="black"/>
</svg>
