<svg width="31" height="31" viewBox="0 0 31 31" fill="none" xmlns="http://www.w3.org/2000/svg">
<path d="M22.4844 8.17188V7H21.3125V8.17188H10.6875V7H9.51562V8.17188H6V24.1875H23.313L26 21.5005V8.17188H22.4844ZM24.8281 20.6719H22.4844V23.0156H7.17188V12.8594H24.8281V20.6719ZM24.8281 11.6875H7.17188V9.34375H9.51562V10.5156H10.6875V9.34375H21.3125V10.5156H22.4844V9.34375H24.8281V11.6875Z" fill="#38A1D6"/>
<path d="M18.9297 14.4219H16.5859V15.9844H18.9297V14.4219Z" fill="#38A1D6"/>
<path d="M15.4141 14.4219H13.0703V15.9844H15.4141V14.4219Z" fill="#38A1D6"/>
<path d="M22.4453 14.4219H20.1016V15.9844H22.4453V14.4219Z" fill="#38A1D6"/>
<path d="M18.9297 17.1562H16.5859V18.7188H18.9297V17.1562Z" fill="#38A1D6"/>
<path d="M15.4141 17.1562H13.0703V18.7188H15.4141V17.1562Z" fill="#38A1D6"/>
<path d="M11.8984 17.1562H9.55469V18.7188H11.8984V17.1562Z" fill="#38A1D6"/>
<path d="M22.4453 17.1562H20.1016V18.7188H22.4453V17.1562Z" fill="#38A1D6"/>
<path d="M18.9297 19.8906H16.5859V21.4531H18.9297V19.8906Z" fill="#38A1D6"/>
<path d="M15.4141 19.8906H13.0703V21.4531H15.4141V19.8906Z" fill="#38A1D6"/>
<path d="M11.8984 19.8906H9.55469V21.4531H11.8984V19.8906Z" fill="#38A1D6"/>
<rect width="31" height="31" rx="7" fill="#38A1D6" fill-opacity="0.1"/>
</svg>
