<svg width="31" height="31" viewBox="0 0 31 31" fill="none" xmlns="http://www.w3.org/2000/svg">
<rect width="31" height="31" rx="7" fill="#F16621" fill-opacity="0.1"/>
<path d="M22.8662 11.2408C22.1532 8.9372 20.3011 7.06982 18.0326 6.36728C15.617 5.61919 13.0986 6.02529 11.1232 7.48142C10.1768 8.17912 9.39137 9.09939 8.85203 10.1426C8.29461 11.2209 8 12.4348 8 13.6532C8 15.3152 8.52574 16.8947 9.52043 18.2208L15.6191 26L21.7102 18.2307L21.7178 18.2208C23.2063 16.2361 23.625 13.6919 22.8662 11.2408ZM20.7837 17.5127L15.6191 24.1008L10.4545 17.5127C9.61562 16.392 9.17219 15.0575 9.17219 13.6532C9.17219 11.6011 10.1616 9.64662 11.8188 8.42498C13.4912 7.19212 15.6297 6.85029 17.6859 7.48701C19.5903 8.07677 21.1462 9.64794 21.7466 11.5874C22.3922 13.6734 22.0412 15.8327 20.7837 17.5127Z" fill="#F16621"/>
<path d="M15.6191 9.55048C13.357 9.55048 11.5166 11.3909 11.5166 13.6531C11.5166 15.9152 13.357 17.7556 15.6191 17.7556C17.8813 17.7556 19.7217 15.9152 19.7217 13.6531C19.7217 11.3909 17.8813 9.55048 15.6191 9.55048ZM15.6191 16.5835C14.0033 16.5835 12.6887 15.2689 12.6887 13.6531C12.6887 12.0372 14.0033 10.7226 15.6191 10.7226C17.235 10.7226 18.5496 12.0372 18.5496 13.6531C18.5496 15.2689 17.235 16.5835 15.6191 16.5835Z" fill="#F16621"/>
</svg>
